<?xml version="1.0" encoding="utf-8"?>
<!-- Generator: Adobe Illustrator 21.0.2, SVG Export Plug-In . SVG Version: 6.00 Build 0)  -->
<svg version="1.1" id="Isolation_Mode" xmlns="http://www.w3.org/2000/svg" xmlns:xlink="http://www.w3.org/1999/xlink" x="0px"
	 y="0px" viewBox="0 0 25 20" style="enable-background:new 0 0 25 20;" xml:space="preserve">
<style type="text/css">
	.st0{fill:#333333;}
</style>
<path class="st0" d="M12.5,1.8c2.7,0,3,0,4,0.1c1,0,1.5,0.2,1.9,0.3c0.5,0.2,0.8,0.4,1.2,0.7c0.4,0.3,0.6,0.7,0.7,1.1
	C20.4,4.5,20.6,5,20.6,6c0,1.1,0.1,1.4,0.1,4s0,3-0.1,4c0,1-0.2,1.5-0.3,1.9c-0.2,0.5-0.4,0.8-0.7,1.1c-0.3,0.3-0.7,0.6-1.2,0.7
	c-0.4,0.1-0.9,0.3-1.9,0.3c-1.1,0-1.4,0.1-4,0.1s-3,0-4-0.1c-1,0-1.5-0.2-1.9-0.3c-0.5-0.2-0.8-0.4-1.1-0.7
	c-0.3-0.3-0.6-0.7-0.7-1.1C4.6,15.5,4.4,15,4.4,14c0-1.1-0.1-1.4-0.1-4s0-3,0.1-4c0-1,0.2-1.5,0.3-1.9C4.9,3.6,5.1,3.3,5.5,3
	c0.3-0.3,0.7-0.6,1.1-0.7C7,2.1,7.5,1.9,8.5,1.9C9.5,1.8,9.8,1.8,12.5,1.8 M12.5,0C9.8,0,9.4,0,8.4,0.1c-1.1,0-1.8,0.2-2.4,0.5
	C5.3,0.8,4.7,1.1,4.2,1.7C3.6,2.2,3.3,2.8,3,3.4C2.8,4.1,2.6,4.8,2.6,5.9c0,1.1-0.1,1.4-0.1,4.1c0,2.7,0,3.1,0.1,4.1
	c0,1.1,0.2,1.8,0.5,2.4c0.3,0.7,0.6,1.2,1.2,1.8c0.6,0.6,1.1,0.9,1.8,1.2c0.6,0.2,1.4,0.4,2.4,0.5c1.1,0,1.4,0.1,4.1,0.1
	c2.7,0,3.1,0,4.1-0.1c1.1,0,1.8-0.2,2.4-0.5c0.7-0.3,1.2-0.6,1.8-1.2c0.6-0.6,0.9-1.1,1.2-1.8c0.2-0.6,0.4-1.4,0.5-2.4
	c0-1.1,0.1-1.4,0.1-4.1c0-2.7,0-3.1-0.1-4.1c0-1.1-0.2-1.8-0.5-2.4c-0.3-0.7-0.6-1.2-1.2-1.8c-0.6-0.6-1.1-0.9-1.8-1.2
	c-0.6-0.2-1.4-0.4-2.4-0.5C15.6,0,15.2,0,12.5,0"/>
<path class="st0" d="M12.5,4.9c-2.8,0-5.1,2.3-5.1,5.1c0,2.8,2.3,5.1,5.1,5.1s5.1-2.3,5.1-5.1C17.6,7.2,15.3,4.9,12.5,4.9
	 M12.5,13.3c-1.8,0-3.3-1.5-3.3-3.3s1.5-3.3,3.3-3.3c1.8,0,3.3,1.5,3.3,3.3S14.3,13.3,12.5,13.3"/>
<path class="st0" d="M19,4.7c0,0.7-0.5,1.2-1.2,1.2c-0.7,0-1.2-0.5-1.2-1.2s0.5-1.2,1.2-1.2C18.5,3.5,19,4,19,4.7"/>
</svg>
